HIERARCHY
ROOT Hips
{
  OFFSET -4.35178 90.3298 111.633
  CHANNELS 6 Xposition Yposition Zposition Zrotation Xrotation Yrotation
  JOINT LeftUpLeg
  {
    OFFSET 0.103456 1.85784 10.5485
    CHANNELS 6 Xposition Yposition Zposition Zrotation Xrotation Yrotation
    JOINT LeftLeg
    {
      OFFSET 43.5 -4.2e-05 0
      CHANNELS 6 Xposition Yposition Zposition Zrotation Xrotation Yrotation
      JOINT LeftFoot
      {
        OFFSET 42.3722 1.9e-05 0
        CHANNELS 6 Xposition Yposition Zposition Zrotation Xrotation Yrotation
        JOINT LeftToe
        {
          OFFSET 17.3 0 0
          CHANNELS 6 Xposition Yposition Zposition Zrotation Xrotation Yrotation
          End Site
          {
            OFFSET 0 0 0
          }
        }
      }
    }
  }
  JOINT RightUpLeg
  {
    OFFSET 0.103456 1.85782 -10.5485
    CHANNELS 6 Xposition Yposition Zposition Zrotation Xrotation Yrotation
    JOINT RightLeg
    {
      OFFSET 43.5 -2.7e-05 0
      CHANNELS 6 Xposition Yposition Zposition Zrotation Xrotation Yrotation
      JOINT RightFoot
      {
        OFFSET 42.3723 0 0
        CHANNELS 6 Xposition Yposition Zposition Zrotation Xrotation Yrotation
        JOINT RightToe
        {
          OFFSET 17.3 0 1.7e-05
          CHANNELS 6 Xposition Yposition Zposition Zrotation Xrotation Yrotation
          End Site
          {
            OFFSET 0 0 0
          }
        }
      }
    }
  }
  JOINT Spine
  {
    OFFSET 6.90197 -2.60373 0
    CHANNELS 6 Xposition Yposition Zposition Zrotation Xrotation Yrotation
    JOINT Spine1
    {
      OFFSET 12.5881 0 0
      CHANNELS 6 Xposition Yposition Zposition Zrotation Xrotation Yrotation
      JOINT Spine2
      {
        OFFSET 12.3432 -1.8e-05 0
        CHANNELS 6 Xposition Yposition Zposition Zrotation Xrotation Yrotation
        JOINT Neck
        {
          OFFSET 25.8329 2.3e-05 0
          CHANNELS 6 Xposition Yposition Zposition Zrotation Xrotation Yrotation
          JOINT Head
          {
            OFFSET 11.7666 0 0
            CHANNELS 6 Xposition Yposition Zposition Zrotation Xrotation Yrotation
            End Site
            {
              OFFSET 0 0 0
            }
          }
        }
        JOINT LeftShoulder
        {
          OFFSET 19.7459 -1.48035 6.0001
          CHANNELS 6 Xposition Yposition Zposition Zrotation Xrotation Yrotation
          JOINT LeftArm
          {
            OFFSET 11.2841 1.8e-05 -2e-05
            CHANNELS 6 Xposition Yposition Zposition Zrotation Xrotation Yrotation
            JOINT LeftForeArm
            {
              OFFSET 33 -1.3e-05 1.9e-05
              CHANNELS 6 Xposition Yposition Zposition Zrotation Xrotation Yrotation
              JOINT LeftHand
              {
                OFFSET 25.2 3.2e-05 1.1e-05
                CHANNELS 6 Xposition Yposition Zposition Zrotation Xrotation Yrotation
                End Site
                {
                  OFFSET 0 0 0
                }
              }
            }
          }
        }
        JOINT RightShoulder
        {
          OFFSET 19.7461 -1.48036 -6.00008
          CHANNELS 6 Xposition Yposition Zposition Zrotation Xrotation Yrotation
          JOINT RightArm
          {
            OFFSET 11.2841 0 0
            CHANNELS 6 Xposition Yposition Zposition Zrotation Xrotation Yrotation
            JOINT RightForeArm
            {
              OFFSET 33.0001 1.6e-05 0
              CHANNELS 6 Xposition Yposition Zposition Zrotation Xrotation Yrotation
              JOINT RightHand
              {
                OFFSET 25.1998 0.000123 0.000432
                CHANNELS 6 Xposition Yposition Zposition Zrotation Xrotation Yrotation
                End Site
                {
                  OFFSET 0 0 0
                }
              }
            }
          }
        }
      }
    }
  }
}
MOTION
Frames:	4
Frame Time:	0.0333333
-87.8194 90.934 -152.628 75.9555 68.3106 12.5584 0.103456 1.85784 10.5485 3.90135 0.105218 173.885 43.5 -4.2e-05 1e-05 -26.8134 -1.05507 -1.71784 42.3722 1.9e-05 0 72.7294 14.3721 -4.45874 17.3 7.10543e-15 3e-06 21.4546 -1e-06 0.003093 0.103456 1.85782 -10.5485 -9.81643 -0.992994 167.479 43.5 -2.7e-05 4e-06 -18.5699 6.63883 1.7998 42.3723 -1.42109e-14 1e-05 71.5513 10.6638 -1.69021 17.3 -6e-06 1.7e-05 21.4546 -1.9e-05 -0.003116 6.90197 -2.60373 -3e-06 8.27139 0.644686 -1.43152 12.5881 1e-05 8e-06 6.53448 1.14089 -2.93006 12.3432 -1.8e-05 -5e-06 6.20541 1.05342 -2.98156 25.8329 2.3e-05 7e-06 8.37276 6.62776 -15.4079 11.7666 -8e-06 -6e-06 -20.2883 8.81731 8.34893 19.7459 -1.48035 6.0001 -169.856 12.7996 -92.0205 11.2841 1.8e-05 -2e-05 -9.70605 -19.1614 56.8822 33 -1.3e-05 1.9e-05 -114.694 -17.7394 -1.28131 25.2 3.2e-05 1.1e-05 -13.0782 18.9145 2.7677 19.7461 -1.48036 -6.00008 -175.996 7.2834 82.6533 11.2841 0 -1e-06 -32.4775 -11.18 -53.5212 33.0001 1.6e-05 -1e-06 -103.335 -0.936589 25.0966 25.1998 0.000123 0.000432 -23.5763 -17.1186 12.3768 
-90.0197 90.4557 -151.089 75.003 72.1051 13.2706 0.103456 1.85784 10.5485 2.58787 -1.64116 175.483 43.5 -4.2e-05 1e-05 -30.8894 -0.273528 -1.4586 42.3722 1.9e-05 0 74.4489 14.3222 -5.52763 17.3 7.10543e-15 3e-06 21.4546 -1e-06 0.003093 0.103456 1.85782 -10.5485 -7.58586 0.0570385 168.401 43.5 -2.7e-05 4e-06 -12.4464 3.53771 2.56135 42.3723 1.42109e-14 1e-05 67.1646 10.7054 3.94026 17.3 -6e-06 1.7e-05 21.4546 -1.9e-05 -0.003116 6.90197 -2.60373 -3e-06 8.00906 0.575642 -1.20191 12.5881 1e-05 8e-06 6.00725 1.03917 -2.45974 12.3432 -1.8e-05 -5e-06 5.67931 0.973051 -2.5065 25.8329 2.3e-05 7e-06 8.52739 5.74362 -14.7573 11.7666 -8e-06 -6e-06 -19.197 7.69649 7.72156 19.7459 -1.48035 6.0001 -172.08 12.1071 -92.7219 11.2841 1.8e-05 -2e-05 -12.05 -20.9247 55.0843 33 -1.3e-05 1.9e-05 -114.107 -15.7466 -0.448353 25.2 3.2e-05 1.1e-05 -12.2179 18.7596 2.91201 19.7461 -1.48036 -6.00008 -175.256 6.61179 82.3946 11.2841 0 -1e-06 -31.7343 -11.592 -52.6312 33.0001 1.6e-05 -1e-06 -102.586 -0.907693 24.9408 25.1998 0.000123 0.000432 -23.7417 -16.9107 12.1956 
-91.9781 89.8272 -149.474 72.3049 74.4318 15.9573 0.103456 1.85784 10.5485 2.15059 -2.41922 176.488 43.5 -4.2e-05 1e-05 -34.672 0.235329 -1.05434 42.3722 1.9e-05 -2.84217e-14 75.772 14.4729 -6.40882 17.3 -1.42109e-14 3e-06 21.4546 -1e-06 0.003093 0.103456 1.85782 -10.5485 -7.41225 -1.52727 169.204 43.5 -2.7e-05 4e-06 -13.6722 3.05917 3.1596 42.3723 0 1e-05 66.06 9.06804 4.47361 17.3 -6e-06 1.7e-05 21.4546 -1.9e-05 -0.003116 6.90197 -2.60373 -3e-06 7.89991 0.715924 -1.05518 12.5881 1e-05 8e-06 5.78722 1.34106 -2.18773 12.3432 -1.8e-05 -5e-06 5.45481 1.28786 -2.25391 25.8329 2.3e-05 7e-06 8.62351 4.84651 -14.1839 11.7666 -8e-06 -6e-06 -18.0868 6.80789 6.83995 19.7459 -1.48035 6.0001 -173.367 11.4747 -93.2856 11.2841 1.8e-05 -2e-05 -12.6031 -23.2616 54.8721 33 -1.3e-05 1.9e-05 -113.972 -13.7037 0.42753 25.2 3.2e-05 1.1e-05 -10.663 17.9299 3.67047 19.7461 -1.48036 -6.00008 -175.054 5.70276 82.5472 11.2841 0 -1e-06 -31.7043 -11.9393 -51.7495 33.0001 1.6e-05 -1e-06 -101.483 -0.846035 24.7032 25.1998 0.000123 0.000432 -23.5444 -16.4826 11.8116 
-93.8346 89.1789 -147.695 67.2903 76.1041 21.2995 0.103456 1.85784 10.5485 2.01137 -2.52421 177.118 43.5 -4.2e-05 1e-05 -38.8696 0.831422 -0.515192 42.3722 1.9e-05 1.42109e-14 76.0884 14.8887 -7.43667 17.3 0 3e-06 21.4546 -1e-06 0.003093 0.103456 1.85782 -10.5485 -7.35527 -3.45267 169.593 43.5 -2.7e-05 4e-06 -19.2983 4.87914 3.1423 42.3723 0 1e-05 73.2935 8.80637 2.73138 17.3 -6e-06 1.7e-05 21.4546 -1.9e-05 -0.003116 6.90197 -2.60373 -3e-06 7.92024 0.891108 -1.05532 12.5881 1e-05 8e-06 5.82787 1.69039 -2.21482 12.3432 -1.8e-05 -5e-06 5.49079 1.63542 -2.30242 25.8329 2.3e-05 7e-06 8.75402 4.38784 -13.9493 11.7666 -8e-06 -6e-06 -17.2079 6.50757 6.36503 19.7459 -1.48035 6.0001 -173.656 10.9836 -93.5546 11.2841 1.8e-05 -2e-05 -11.7323 -25.1981 55.5855 33 -1.3e-05 1.9e-05 -114.178 -12.2362 1.09739 25.2 3.2e-05 1.1e-05 -9.42764 17.654 3.9459 19.7461 -1.48036 -6.00008 -175.539 4.82274 82.8393 11.2841 0 -1e-06 -32.7009 -12.2843 -51.1898 33.0001 1.6e-05 -1e-06 -100.153 -1.37341 24.3793 25.1998 0.000123 0.000432 -23.0466 -16.1669 11.4055 
